<?xml version="1.0" encoding="utf-8"?>
<!-- Generator: Adobe Illustrator 26.3.1, SVG Export Plug-In . SVG Version: 6.00 Build 0)  -->
<svg version="1.1" id="Layer_1" xmlns="http://www.w3.org/2000/svg" xmlns:xlink="http://www.w3.org/1999/xlink" x="0px" y="0px"
	 viewBox="0 0 24 24" style="enable-background:new 0 0 24 24;" xml:space="preserve">
<style type="text/css">
	.st0{fill:#2CC3EB;}
</style>
<path class="st0" d="M23.97,16.47l-1.6-12.69c-0.03-0.26-0.18-0.49-0.39-0.63C21.77,3,21.5,2.96,21.25,3.04l-6.54,1.91L8.85,3.29
	c-0.16-0.04-0.32-0.04-0.48,0L2.29,5.01C1.95,5.11,1.7,5.4,1.66,5.75l-1.6,12.69c-0.04,0.29,0.08,0.59,0.3,0.78
	c0.16,0.14,0.37,0.21,0.58,0.21c0.08,0,0.16-0.01,0.24-0.03l5.86-1.66l7.48,1.67c0.13,0.03,0.27,0.03,0.4,0l8.38-1.98
	C23.74,17.33,24.03,16.91,23.97,16.47z M21.2,8.63l-4.53,2.09l0.09-4.54l3.99-1.16L21.2,8.63z M8.61,5.06l5.87,1.66
	c0.16,0.04,0.33,0.04,0.49,0l0.91-0.27l-0.09,4.69l-1.63,0.75l-5.12-1.01L8.47,9.22C8.45,9.15,8.42,9.1,8.37,9.05
	c-1.1-1.14-2.28-2.4-2.89-3.1L8.61,5.06z M4.56,6.21c0.39,0.5,1.24,1.45,3.1,3.38l0.36,1.09l-0.04-0.01
	c-0.16-0.03-0.33-0.02-0.49,0.04L2.58,12.6l0.76-6.05L4.56,6.21z M7.01,15.95c-0.08,0-0.16,0.01-0.24,0.03l-4.79,1.36l0.35-2.74
	l5.57-2.13l0.77,0.15l1.32,3.98L7.2,15.97C7.14,15.95,7.07,15.95,7.01,15.95z M14.71,17.65l-3.72-0.83l-1.33-4.01l4.42,0.87
	c0.18,0.04,0.37,0.01,0.54-0.06l1.11-0.51l-0.08,4.32L14.71,17.65z M16.55,17.21l0.09-4.52l4.8-2.22l0.68,5.42L16.55,17.21z"/>
</svg>
