<?xml version="1.0" encoding="utf-8"?>
<!-- Generator: Adobe Illustrator 26.3.1, SVG Export Plug-In . SVG Version: 6.00 Build 0)  -->
<svg version="1.1" id="Layer_1" xmlns="http://www.w3.org/2000/svg" xmlns:xlink="http://www.w3.org/1999/xlink" x="0px" y="0px"
	 viewBox="0 0 24 24" style="enable-background:new 0 0 24 24;" xml:space="preserve">
<style type="text/css">
	.st0{fill:#2CC3EB;}
</style>
<g>
	<path class="st0" d="M23.6,14.33C22.14,9.34,21.57,5,17.76,5H6.12c-3.81,0-4.38,4.34-5.85,9.33c-1.25,4.26,2,5.5,3.86,4.14
		c1.28-0.94,3.05-4.44,3.05-4.44h4.75h4.75c0,0,1.77,3.5,3.05,4.44C21.61,19.84,24.85,18.59,23.6,14.33z M8.62,9.76H7.17v1.37
		c0,0.31-0.26,0.55-0.58,0.55C6.26,11.69,6,11.44,6,11.13V9.76H4.55c-0.32,0-0.58-0.25-0.58-0.55c0-0.31,0.26-0.55,0.58-0.55H6V7.28
		c0-0.31,0.26-0.55,0.58-0.55c0.32,0,0.58,0.25,0.58,0.55v1.37h1.45c0.32,0,0.58,0.25,0.58,0.55C9.2,9.51,8.94,9.76,8.62,9.76z
		 M15.38,9.97c-0.44,0-0.79-0.34-0.79-0.75c0-0.41,0.35-0.75,0.79-0.75c0.44,0,0.79,0.34,0.79,0.75
		C16.16,9.63,15.81,9.97,15.38,9.97z M17.37,11.85c-0.44,0-0.79-0.34-0.79-0.75c0-0.41,0.35-0.75,0.79-0.75
		c0.44,0,0.79,0.34,0.79,0.75C18.16,11.52,17.8,11.85,17.37,11.85z M17.37,8.08c-0.44,0-0.79-0.34-0.79-0.75
		c0-0.41,0.35-0.75,0.79-0.75c0.44,0,0.79,0.34,0.79,0.75C18.16,7.74,17.8,8.08,17.37,8.08z M19.36,9.97
		c-0.44,0-0.79-0.34-0.79-0.75c0-0.41,0.35-0.75,0.79-0.75c0.44,0,0.79,0.34,0.79,0.75C20.15,9.63,19.8,9.97,19.36,9.97z"/>
</g>
</svg>
