<?xml version="1.0" encoding="utf-8"?>
<!-- Generator: Adobe Illustrator 26.3.1, SVG Export Plug-In . SVG Version: 6.00 Build 0)  -->
<svg version="1.1" id="Layer_1" xmlns="http://www.w3.org/2000/svg" xmlns:xlink="http://www.w3.org/1999/xlink" x="0px" y="0px"
	 viewBox="0 0 24 24" style="enable-background:new 0 0 24 24;" xml:space="preserve">
<style type="text/css">
	.st0{fill:#2CC3EB;}
</style>
<g>
	<path class="st0" d="M3.78,2C2.01,2,0.57,3.44,0.57,5.21c0,1.77,1.44,3.21,3.21,3.21C5.56,8.42,7,6.99,7,5.21C7,3.44,5.56,2,3.78,2
		z M4.27,6.67H3.44V4.72C3.31,4.82,3.18,4.9,3.06,4.97C2.93,5.03,2.78,5.09,2.59,5.15V4.48c0.28-0.09,0.49-0.2,0.65-0.32
		c0.15-0.13,0.27-0.28,0.36-0.46h0.67V6.67z"/>
	<path class="st0" d="M3.78,9.17c-1.77,0-3.21,1.44-3.21,3.21c0,1.77,1.44,3.21,3.21,3.21C5.56,15.6,7,14.16,7,12.39
		C7,10.61,5.56,9.17,3.78,9.17z M4.93,13.85H2.48c0.03-0.24,0.11-0.47,0.26-0.68c0.14-0.21,0.41-0.46,0.8-0.75
		c0.24-0.18,0.39-0.31,0.46-0.4c0.07-0.09,0.1-0.18,0.1-0.26c0-0.09-0.03-0.17-0.1-0.23c-0.07-0.06-0.15-0.1-0.25-0.1
		c-0.1,0-0.19,0.03-0.26,0.1c-0.07,0.07-0.11,0.18-0.13,0.35L2.54,11.8c0.03-0.23,0.09-0.41,0.18-0.54c0.09-0.13,0.21-0.23,0.36-0.3
		c0.16-0.07,0.37-0.1,0.65-0.1c0.29,0,0.51,0.03,0.67,0.1c0.16,0.07,0.28,0.17,0.38,0.3c0.09,0.14,0.14,0.29,0.14,0.46
		c0,0.18-0.05,0.35-0.16,0.51c-0.1,0.16-0.3,0.34-0.57,0.54c-0.16,0.11-0.27,0.19-0.33,0.24c-0.06,0.05-0.12,0.1-0.2,0.18h1.27
		V13.85z"/>
	<path class="st0" d="M3.78,16.35c-1.77,0-3.21,1.44-3.21,3.21c0,1.77,1.44,3.21,3.21,3.21c1.77,0,3.21-1.44,3.21-3.21
		C7,17.78,5.56,16.35,3.78,16.35z M4.81,20.58c-0.09,0.16-0.22,0.28-0.39,0.36c-0.17,0.08-0.39,0.13-0.66,0.13
		c-0.27,0-0.48-0.03-0.63-0.09c-0.15-0.06-0.28-0.15-0.38-0.27c-0.1-0.12-0.18-0.27-0.23-0.46l0.81-0.11
		c0.03,0.16,0.08,0.28,0.15,0.34c0.07,0.06,0.15,0.09,0.26,0.09c0.11,0,0.2-0.04,0.27-0.12c0.07-0.08,0.11-0.19,0.11-0.32
		c0-0.14-0.04-0.24-0.11-0.32c-0.07-0.07-0.17-0.11-0.29-0.11c-0.06,0-0.15,0.02-0.26,0.05l0.04-0.58c0.05,0.01,0.08,0.01,0.11,0.01
		c0.11,0,0.2-0.03,0.27-0.1c0.07-0.07,0.11-0.15,0.11-0.24c0-0.09-0.03-0.16-0.08-0.21c-0.05-0.05-0.13-0.08-0.22-0.08
		c-0.1,0-0.17,0.03-0.23,0.09c-0.06,0.06-0.1,0.16-0.12,0.31L2.56,18.8c0.06-0.25,0.19-0.43,0.37-0.56c0.18-0.13,0.44-0.2,0.77-0.2
		c0.38,0,0.66,0.07,0.83,0.21c0.17,0.14,0.26,0.32,0.26,0.54c0,0.13-0.03,0.24-0.1,0.34c-0.07,0.1-0.17,0.19-0.31,0.27
		c0.11,0.03,0.2,0.06,0.26,0.1c0.1,0.06,0.17,0.14,0.23,0.24c0.05,0.1,0.08,0.22,0.08,0.35C4.94,20.26,4.9,20.42,4.81,20.58z"/>
	<rect x="8.92" y="4.1" class="st0" width="14.75" height="2.97"/>
	<rect x="8.92" y="10.9" class="st0" width="11.57" height="2.97"/>
	<rect x="8.92" y="17.7" class="st0" width="8.56" height="2.97"/>
</g>
</svg>
