<?xml version="1.0" encoding="utf-8"?>
<!-- Generator: Adobe Illustrator 26.3.1, SVG Export Plug-In . SVG Version: 6.00 Build 0)  -->
<svg version="1.1" id="Layer_1" xmlns="http://www.w3.org/2000/svg" xmlns:xlink="http://www.w3.org/1999/xlink" x="0px" y="0px"
	 viewBox="0 0 24 24" style="enable-background:new 0 0 24 24;" xml:space="preserve">
<style type="text/css">
	.st0{fill:#2CC3EB;}
</style>
<g>
	<path class="st0" d="M12.23,11.57c-3.25,0-5.88,2.63-5.88,5.88c0,3.25,2.63,5.88,5.88,5.88c3.25,0,5.88-2.63,5.88-5.88
		C18.1,14.2,15.47,11.57,12.23,11.57z M11,16.89l-0.5-0.36l-0.82,0.59l-0.45,0.32c-0.06,0.05-0.1,0.02-0.07-0.05l0.16-0.51
		l0.32-0.98l-0.54-0.39l-0.72-0.53c-0.06-0.05-0.05-0.08,0.03-0.08h0.39h0.48h0.69l0.22-0.68l0.26-0.81c0.02-0.07,0.06-0.07,0.09,0
		l0.1,0.31l0.38,1.18h0.69h0.47h0.41c0.08,0,0.09,0.04,0.03,0.08l-0.72,0.53v0l-0.54,0.39l0.19,0.6l0.29,0.89
		c0.02,0.07-0.01,0.1-0.07,0.05L11,16.89z M16.06,18.2l-0.72,0.53v0l-0.54,0.39l0.19,0.6l0.29,0.89c0.02,0.07-0.01,0.1-0.07,0.05
		l-0.76-0.56l-0.5-0.36l-0.82,0.59l-0.45,0.32c-0.06,0.05-0.1,0.02-0.07-0.05l0.16-0.51l0.32-0.98l-0.54-0.39l-0.72-0.53
		c-0.06-0.05-0.05-0.08,0.03-0.08h0.39h0.48h0.69l0.22-0.68l0.26-0.81c0.02-0.07,0.06-0.07,0.09,0l0.1,0.31l0.38,1.18h0.69h0.47
		h0.41C16.11,18.11,16.12,18.15,16.06,18.2z"/>
</g>
<path class="st0" d="M9.93,12.28V0H5.87v8.42l3.73,4.02 M14.85,12.43l3.73-4.02V0h-4.05v12.28 M12.23,14.3"/>
</svg>
