<?xml version="1.0" encoding="utf-8"?>
<!-- Generator: Adobe Illustrator 26.3.1, SVG Export Plug-In . SVG Version: 6.00 Build 0)  -->
<svg version="1.1" id="Layer_1" xmlns="http://www.w3.org/2000/svg" xmlns:xlink="http://www.w3.org/1999/xlink" x="0px" y="0px"
	 viewBox="0 0 24 24" style="enable-background:new 0 0 24 24;" xml:space="preserve">
<style type="text/css">
	.st0{fill:#2CC3EB;}
</style>
<g>
	<path class="st0" d="M0.92,2.63l8.05,19.22l1.6-0.87L1.7,2.24c0,0,0.32-0.51,0.24-0.78C1.86,1.18,1.82,1.01,1.5,0.93
		s-0.68-0.17-0.95,0.1S0.07,1.68,0.33,2.02S0.69,2.46,0.92,2.63z"/>
	<path class="st0" d="M2.72,3c0,0,4.47,2.51,4.16,9.24c0.15-0.15,0.59-0.44,0.85-0.54s2.85-1.05,4.09-0.8
		c0.24,0.07,0.95,0.29,0.56,0.93c-0.39,0.65-0.71,1.6,0.88,1.51c1.6-0.08,2.56-0.12,10.61-3.23c-1.21-1.38-4.58-5.13-4.58-5.13
		S17.22,5.8,16.8,5.9c-0.42,0.1-3.28,0.9-2.44-0.95c0.42-0.65,0.59-0.78,0.56-0.97c-0.03-0.19-0.07-0.39-1.07-0.81
		C13.61,3.08,13.3,3,12.88,3S2.72,3,2.72,3z"/>
</g>
</svg>
