<?xml version="1.0" encoding="utf-8"?>
<!-- Generator: Adobe Illustrator 26.3.1, SVG Export Plug-In . SVG Version: 6.00 Build 0)  -->
<svg version="1.1" id="Layer_1" xmlns="http://www.w3.org/2000/svg" xmlns:xlink="http://www.w3.org/1999/xlink" x="0px" y="0px"
	 viewBox="0 0 24 24" style="enable-background:new 0 0 24 24;" xml:space="preserve">
<style type="text/css">
	.st0{fill:#2BC3EB;}
</style>
<g>
	<path class="st0" d="M24,4.48v1.27c0,0.45-0.37,0.81-0.81,0.81H8.94c-0.45,0-0.81-0.37-0.81-0.81V4.48c0-0.45,0.37-0.81,0.81-0.81
		l14.25,0C23.63,3.67,24,4.03,24,4.48z"/>
	<path class="st0" d="M24,11.96v1.27c0,0.45-0.37,0.81-0.81,0.81l-22.37,0C0.37,14.05,0,13.68,0,13.24l0-1.27
		c0-0.45,0.37-0.81,0.81-0.81h22.37C23.63,11.15,24,11.51,24,11.96z"/>
	<path class="st0" d="M24,19.44v1.27c0,0.45-0.37,0.81-0.81,0.81H0.81C0.37,21.53,0,21.17,0,20.72l0-1.27
		c0-0.45,0.37-0.81,0.81-0.81h22.37C23.63,18.63,24,19,24,19.44z"/>
	<polygon class="st0" points="6.28,5.12 0,1.49 0,8.74 	"/>
</g>
</svg>
