<?xml version="1.0" encoding="utf-8"?>
<!-- Generator: Adobe Illustrator 26.3.1, SVG Export Plug-In . SVG Version: 6.00 Build 0)  -->
<svg version="1.1" id="Layer_1" xmlns="http://www.w3.org/2000/svg" xmlns:xlink="http://www.w3.org/1999/xlink" x="0px" y="0px"
	 viewBox="0 0 24 24" style="enable-background:new 0 0 24 24;" xml:space="preserve">
<style type="text/css">
	.st0{fill:#2CC3EB;}
</style>
<g>
	<path class="st0" d="M23.93,7.98c-0.07-0.07-0.18-0.09-0.28-0.06l-5.66,1.64c-0.28,0.08-0.47,0.31-0.47,0.57v1.32
		c0,0.97-0.9,1.76-2.02,1.76c-1.12,0-2.02-0.79-2.02-1.76c0-0.52,0.24-1.02,0.66-1.39l1.14-0.99c0.1-0.09,0.1-0.23,0-0.32
		l-3.09-2.69C12.14,6.02,12.07,6,12,6c-0.07,0-0.14,0.02-0.18,0.07L8.73,8.75c-0.1,0.09-0.1,0.23,0,0.32l1.14,0.99
		c0.42,0.37,0.66,0.87,0.66,1.39c0,0.97-0.9,1.76-2.02,1.76c-1.12,0-2.02-0.79-2.02-1.76v-1.32c0-0.26-0.19-0.49-0.47-0.57
		L0.34,7.92c-0.1-0.03-0.21,0-0.28,0.06C0,8.05-0.02,8.14,0.02,8.23l4.48,8.5H19.5l4.48-8.5C24.02,8.14,24,8.05,23.93,7.98z"/>
	<path class="st0" d="M19.53,17.98c0-0.17-0.16-0.31-0.36-0.31H4.75c-0.2,0-0.36,0.14-0.36,0.31v0.63c0,0.17,0.16,0.31,0.36,0.31
		h14.42c0.2,0,0.36-0.14,0.36-0.31V17.98z"/>
</g>
</svg>
