<?xml version="1.0" encoding="utf-8"?>
<!-- Generator: Adobe Illustrator 26.3.1, SVG Export Plug-In . SVG Version: 6.00 Build 0)  -->
<svg version="1.1" id="Layer_1" xmlns="http://www.w3.org/2000/svg" xmlns:xlink="http://www.w3.org/1999/xlink" x="0px" y="0px"
	 viewBox="0 0 24 24" style="enable-background:new 0 0 24 24;" xml:space="preserve">
<style type="text/css">
	.st0{fill:#2BC3EB;}
</style>
<path class="st0" d="M23.58,21.94l-8.34-8.34c1.14-1.43,1.83-3.24,1.83-5.21C17.07,3.76,13.31,0,8.68,0C4.04,0,0.29,3.76,0.29,8.39
	s3.76,8.39,8.39,8.39c1.72,0,3.32-0.52,4.65-1.41l8.41,8.41c0.31,0.32,0.83,0.32,1.15,0l0.69-0.69
	C23.9,22.78,23.9,22.26,23.58,21.94z M2.28,8.39c0-3.54,2.86-6.4,6.4-6.4s6.4,2.86,6.4,6.4c0,3.54-2.87,6.4-6.4,6.4
	C5.15,14.79,2.28,11.93,2.28,8.39z"/>
</svg>
