<?xml version="1.0" encoding="utf-8"?>
<!-- Generator: Adobe Illustrator 26.3.1, SVG Export Plug-In . SVG Version: 6.00 Build 0)  -->
<svg version="1.1" id="Layer_1" xmlns="http://www.w3.org/2000/svg" xmlns:xlink="http://www.w3.org/1999/xlink" x="0px" y="0px"
	 viewBox="0 0 24 24" style="enable-background:new 0 0 24 24;" xml:space="preserve">
<g>
	<g>
		<g>
			<path d="M8.68,0C4.04,0,0.29,3.76,0.29,8.39s3.76,8.39,8.39,8.39s8.39-3.76,8.39-8.39S13.31,0,8.68,0z M8.68,14.79
				c-3.53,0-6.4-2.86-6.4-6.4s2.86-6.4,6.4-6.4s6.4,2.86,6.4,6.4S12.21,14.79,8.68,14.79z"/>
		</g>
	</g>
	<path d="M23.58,23.09l-0.69,0.69c-0.32,0.32-0.84,0.32-1.15,0l-8.95-8.95c-0.32-0.32-0.32-0.84,0-1.15l0.69-0.69
		c0.32-0.32,0.84-0.32,1.15,0l8.95,8.95C23.9,22.26,23.9,22.78,23.58,23.09z"/>
</g>
</svg>
