<?xml version="1.0" encoding="utf-8"?>
<!-- Generator: Adobe Illustrator 26.3.1, SVG Export Plug-In . SVG Version: 6.00 Build 0)  -->
<svg version="1.1" id="Layer_1" xmlns="http://www.w3.org/2000/svg" xmlns:xlink="http://www.w3.org/1999/xlink" x="0px" y="0px"
	 viewBox="0 0 24 24" style="enable-background:new 0 0 24 24;" xml:space="preserve">
<style type="text/css">
	.st0{fill:#2BC3EB;}
</style>
<g>
	<path class="st0" d="M8.53,19.41c-0.35-0.17-0.68-0.37-1-0.57c0.03-0.09,0.08-0.23,0.13-0.4c0.1-0.34,0.2-0.82,0.27-1.36
		c0.06-0.55-0.2-0.99-0.46-1.33c-0.06-0.09-0.13-0.16-0.2-0.23c-0.06-0.07-0.11-0.13-0.16-0.18c-0.1-0.1-0.17-0.16-0.17-0.16
		s-0.03,0-0.14,0.17c-0.11,0.17-0.33,0.5-0.62,1.25C6,17.07,6.06,17.51,6.23,17.87c-0.43-0.38-0.83-0.79-1.18-1.24
		c0.06-0.07,0.16-0.19,0.29-0.37c0.21-0.29,0.46-0.71,0.72-1.19c0.25-0.49,0.17-0.95,0.09-1.31c-0.02-0.09-0.05-0.17-0.08-0.25
		c-0.02-0.08-0.04-0.15-0.06-0.2c-0.04-0.11-0.09-0.18-0.09-0.18s-0.02-0.01-0.2,0.09c-0.17,0.11-0.52,0.3-1.09,0.86
		C4.34,14.35,4.2,14.68,4.17,15c0,0.1,0,0.21,0.01,0.31c-0.15-0.29-0.29-0.6-0.42-0.92c-0.09-0.23-0.16-0.47-0.22-0.71
		c0.08-0.04,0.23-0.11,0.44-0.23c0.31-0.18,0.74-0.44,1.16-0.76c0.45-0.32,0.58-0.71,0.66-1.16c0.02-0.21,0.06-0.4,0.06-0.55
		c0.01-0.14,0-0.24,0-0.24s-0.02-0.02-0.22,0.01c-0.2,0.03-0.59,0.1-1.35,0.39c-0.38,0.15-0.62,0.39-0.79,0.67
		c-0.08,0.13-0.13,0.27-0.17,0.41c-0.03-0.62,0.01-1.26,0.12-1.89c0.08,0,0.27-0.01,0.53-0.04c0.36-0.05,0.84-0.14,1.36-0.31
		C5.62,9.92,5.83,9.77,5.99,9.6c0.18-0.17,0.3-0.38,0.41-0.58c0.2-0.39,0.32-0.77,0.32-0.77S6.71,8.23,6.5,8.2
		C6.3,8.17,5.88,8.12,5.09,8.17C4.69,8.2,4.36,8.35,4.12,8.56C4,8.67,3.89,8.79,3.81,8.92C4,8.3,4.25,7.7,4.54,7.13
		C4.62,7.15,4.8,7.2,5.05,7.25c0.35,0.06,0.85,0.11,1.4,0.1c0.56-0.01,0.98-0.36,1.3-0.68c0.31-0.32,0.5-0.62,0.43-0.54
		c0,0-0.01-0.02-0.15-0.16C7.86,5.86,7.51,5.68,6.73,5.5C6.16,5.36,5.68,5.55,5.32,5.84C5.62,5.41,5.95,5,6.29,4.64
		c0.68,0,1.67-0.18,2.21-1.11c0.88-1.5,0.79-1.58,0.79-1.58s-2.09-0.3-2.84,0.7C6.17,3.03,5.97,3.39,5.84,3.71l0,0
		C5.4,4.14,5,4.62,4.64,5.13c0.11-0.42,0.14-0.89-0.02-1.4c-0.25-0.82-0.33-1.27-0.39-1.5C4.21,1.97,4.18,1.98,4.17,1.98
		C4.1,2.05,3.59,2.47,3.18,3.08c-0.42,0.6-0.73,1.39-0.53,1.99c0.2,0.61,0.49,1.02,0.73,1.29C3.52,6.52,3.63,6.62,3.7,6.68
		C3.41,7.26,3.16,7.87,2.97,8.49c0-0.11,0-0.23-0.02-0.35C2.9,7.79,2.8,7.43,2.57,7.07c-0.48-0.72-0.69-1.1-0.83-1.28
		C1.61,5.61,1.58,5.63,1.58,5.63S1.23,6.14,1,6.83C0.88,7.18,0.81,7.58,0.8,7.94c0,0.38,0.07,0.73,0.24,0.99
		c0.37,0.53,0.77,0.85,1.08,1.04c0.21,0.13,0.36,0.19,0.45,0.22c-0.11,0.68-0.15,1.36-0.13,2.04c-0.05-0.14-0.11-0.29-0.17-0.43
		c-0.14-0.32-0.38-0.64-0.71-0.91c-0.65-0.54-0.99-0.85-1.17-0.98C0.21,9.77,0.19,9.8,0.19,9.8s-0.04,0.15-0.08,0.4
		C0.06,10.46-0.01,10.81,0,11.19c-0.01,0.73,0.21,1.69,0.74,2.08c0.55,0.4,1.04,0.54,1.39,0.6c0.22,0.03,0.38,0.04,0.48,0.03
		c0.13,0.62,0.34,1.22,0.61,1.78c-0.06-0.05-0.12-0.11-0.19-0.16c-0.28-0.22-0.61-0.43-1.04-0.54c-0.83-0.24-1.26-0.41-1.48-0.46
		c-0.22-0.06-0.23-0.03-0.23-0.03s0.03,0.17,0.09,0.44c0.03,0.13,0.07,0.29,0.12,0.46c0.06,0.17,0.14,0.34,0.22,0.53
		c0.33,0.74,0.94,1.45,1.58,1.57s1.16,0.02,1.5-0.07c0.2-0.06,0.34-0.12,0.43-0.16c0.43,0.53,0.92,1.02,1.44,1.46
		c-0.44-0.2-0.96-0.34-1.56-0.25c-0.85,0.12-1.3,0.16-1.52,0.2s-0.22,0.07-0.22,0.07s0.09,0.14,0.24,0.34
		c0.08,0.1,0.17,0.22,0.28,0.35c0.11,0.12,0.24,0.25,0.38,0.38c0.55,0.51,1.33,0.94,1.96,0.82c0.64-0.12,1.09-0.37,1.39-0.58
		c0.22-0.16,0.35-0.29,0.41-0.35c0.32,0.2,0.65,0.38,0.98,0.55C8.59,20.53,9.08,19.69,8.53,19.41z"/>
	<path class="st0" d="M23.47,14.52c-0.22,0.05-0.65,0.23-1.48,0.47c-0.43,0.11-0.75,0.31-1.04,0.54c-0.13,0.09-0.24,0.2-0.34,0.31
		c0.27-0.52,0.51-1.07,0.69-1.65c0.03-0.09,0.05-0.19,0.07-0.28c0.1,0,0.26,0,0.48-0.03c0.35-0.06,0.85-0.2,1.39-0.6
		c0.53-0.39,0.76-1.35,0.74-2.08c0.02-0.38-0.05-0.72-0.09-0.97s-0.08-0.4-0.08-0.4s-0.02-0.02-0.2,0.11s-0.52,0.44-1.17,0.98
		c-0.33,0.27-0.57,0.59-0.71,0.91c-0.03,0.07-0.06,0.15-0.09,0.22c0.01-0.62-0.04-1.24-0.15-1.86c0.09-0.04,0.22-0.1,0.38-0.2
		c0.31-0.19,0.71-0.5,1.08-1.04c0.17-0.26,0.24-0.61,0.24-0.99c0-0.38-0.07-0.78-0.19-1.13c-0.23-0.7-0.58-1.21-0.58-1.21
		s-0.03-0.01-0.16,0.17c-0.14,0.18-0.35,0.55-0.82,1.27c-0.24,0.36-0.34,0.72-0.39,1.07c-0.01,0.08-0.01,0.16-0.02,0.23
		c-0.2-0.58-0.45-1.16-0.73-1.7c0.08-0.06,0.19-0.17,0.32-0.31c0.24-0.27,0.53-0.69,0.73-1.29c0.19-0.6-0.12-1.39-0.53-1.99
		c-0.41-0.61-0.92-1.03-0.99-1.09c0,0-0.04-0.01-0.06,0.25c-0.05,0.23-0.14,0.68-0.39,1.5c-0.16,0.52-0.13,0.99-0.02,1.41
		c-0.37-0.52-0.78-1.01-1.21-1.43l0,0c-0.13-0.31-0.33-0.68-0.61-1.06c-0.75-1-2.84-0.7-2.84-0.7s-0.09,0.08,0.79,1.58
		c0.54,0.93,1.54,1.11,2.21,1.11c0.35,0.38,0.68,0.78,0.98,1.21c-0.36-0.29-0.85-0.49-1.43-0.36c-0.78,0.18-1.13,0.36-1.3,0.47
		c-0.14,0.14-0.14,0.16-0.15,0.16c-0.07-0.07,0.12,0.22,0.43,0.54c0.32,0.32,0.74,0.67,1.3,0.68c0.56,0.01,1.05-0.04,1.4-0.1
		c0.25-0.04,0.42-0.09,0.5-0.11c0.28,0.56,0.52,1.13,0.7,1.73c-0.08-0.11-0.17-0.21-0.27-0.3c-0.24-0.22-0.57-0.36-0.97-0.39
		c-0.79-0.05-1.21,0-1.41,0.03c-0.21,0.03-0.22,0.05-0.22,0.05s0.11,0.37,0.32,0.76c0.11,0.2,0.23,0.4,0.41,0.58
		c0.16,0.18,0.37,0.33,0.64,0.41c0.52,0.16,1.01,0.26,1.36,0.31c0.22,0.03,0.38,0.04,0.48,0.04c0.09,0.58,0.14,1.16,0.12,1.74
		c-0.03-0.09-0.07-0.17-0.12-0.26c-0.18-0.28-0.42-0.52-0.79-0.67c-0.76-0.29-1.14-0.35-1.35-0.39c-0.2-0.03-0.22-0.01-0.22-0.01
		s-0.01,0.09,0,0.24c0,0.14,0.04,0.34,0.06,0.55c0.08,0.44,0.21,0.84,0.66,1.16c0.43,0.31,0.85,0.58,1.16,0.75
		c0.19,0.11,0.33,0.18,0.41,0.22c-0.02,0.08-0.03,0.17-0.05,0.25c-0.13,0.54-0.33,1.04-0.58,1.52c0.03-0.15,0.04-0.3,0.03-0.45
		c-0.03-0.32-0.17-0.65-0.44-0.92c-0.57-0.56-0.92-0.75-1.09-0.86c-0.18-0.1-0.2-0.09-0.2-0.09s-0.04,0.07-0.08,0.18
		c-0.02,0.06-0.05,0.13-0.06,0.2c-0.03,0.08-0.06,0.16-0.08,0.25c-0.08,0.36-0.16,0.83,0.09,1.31c0.26,0.49,0.5,0.9,0.72,1.19
		c0.14,0.2,0.25,0.33,0.31,0.4c-0.37,0.46-0.78,0.87-1.23,1.25c0.19-0.37,0.27-0.82,0.08-1.32c-0.29-0.75-0.51-1.08-0.62-1.25
		c-0.12-0.17-0.14-0.17-0.14-0.17S17,15.24,16.9,15.34c-0.05,0.05-0.11,0.11-0.16,0.18c-0.06,0.07-0.13,0.14-0.2,0.23
		c-0.26,0.34-0.53,0.78-0.46,1.33c0.06,0.54,0.17,1.02,0.27,1.36c0.05,0.18,0.1,0.31,0.13,0.41c-0.33,0.2-0.66,0.39-1,0.56
		c-0.56,0.28-0.07,1.11,0.49,0.83c0.34-0.17,0.67-0.36,0.98-0.55c0.06,0.06,0.19,0.19,0.41,0.35c0.3,0.21,0.75,0.46,1.39,0.58
		s1.41-0.31,1.96-0.82c0.14-0.13,0.27-0.26,0.38-0.38c0.11-0.13,0.2-0.25,0.28-0.35c0.15-0.2,0.24-0.34,0.24-0.34s0-0.03-0.22-0.07
		c-0.22-0.05-0.67-0.08-1.52-0.2c-0.63-0.09-1.16,0.05-1.61,0.27c0.53-0.45,1.02-0.95,1.44-1.5c0.08,0.04,0.24,0.11,0.48,0.18
		c0.34,0.09,0.87,0.19,1.5,0.07c0.64-0.11,1.25-0.82,1.58-1.57c0.08-0.18,0.16-0.36,0.22-0.53c0.05-0.17,0.09-0.33,0.12-0.46
		c0.06-0.27,0.09-0.44,0.09-0.44S23.69,14.46,23.47,14.52z"/>
	<path class="st0" d="M12,18.44c-0.92,0-1.66,0.74-1.66,1.66s0.74,1.66,1.66,1.66s1.66-0.74,1.66-1.66S12.92,18.44,12,18.44z"/>
	<path class="st0" d="M16.26,10.17c0.13-0.09,0.1-0.17-0.05-0.17h-0.82h-0.94h-1.39l-0.77-2.38l0,0L12.09,7
		c-0.05-0.15-0.13-0.15-0.18,0l-0.53,1.63l0,0L10.94,10H9.55H8.58H7.79c-0.16,0-0.18,0.08-0.05,0.17l1.46,1.06l1.09,0.79l-0.64,1.97
		l-0.33,1.02c-0.05,0.15,0.02,0.2,0.14,0.1l0.9-0.65l0,0l1.65-1.2l1,0.73l0,0l1.54,1.12c0.13,0.09,0.19,0.05,0.14-0.1l-0.58-1.78
		l-0.39-1.21l1.09-0.79l0,0L16.26,10.17z"/>
</g>
</svg>
