<?xml version="1.0" encoding="utf-8"?>
<!-- Generator: Adobe Illustrator 26.3.1, SVG Export Plug-In . SVG Version: 6.00 Build 0)  -->
<svg version="1.1" id="Layer_1" xmlns="http://www.w3.org/2000/svg" xmlns:xlink="http://www.w3.org/1999/xlink" x="0px" y="0px"
	 viewBox="0 0 24 24" style="enable-background:new 0 0 24 24;" xml:space="preserve">
<style type="text/css">
	.st0{fill:#2CC3EB;}
</style>
<g>
	<path class="st0" d="M6.89,13.54c-0.02-0.01-0.04-0.02-0.06-0.03c-0.05,0.03-0.11,0.07-0.17,0.1c-0.11,0.06-0.22,0.12-0.34,0.17
		c-0.42,0.17-0.86,0.26-1.32,0.26c-0.46,0-0.9-0.09-1.32-0.26c-0.12-0.05-0.23-0.11-0.34-0.17c-0.06-0.03-0.11-0.06-0.17-0.1
		c-1.53,0.69-2.6,2.21-2.6,3.98V18h4.95v-0.15v-0.49c0-0.84,0.17-1.65,0.5-2.42c0.2-0.46,0.44-0.88,0.74-1.28
		C6.82,13.62,6.86,13.58,6.89,13.54z"/>
	<polygon class="st0" points="6.98,13.41 6.98,13.41 6.98,13.41 6.99,13.41 6.98,13.41 6.98,13.41 	"/>
	<path class="st0" d="M3.57,12.65C3.57,12.65,3.57,12.65,3.57,12.65C3.56,12.65,3.56,12.65,3.57,12.65
		c0.07,0.06,0.15,0.11,0.23,0.15c0,0,0,0,0,0c0,0,0,0,0,0c0.15,0.09,0.32,0.16,0.49,0.22c0,0,0,0,0,0c0,0,0,0,0,0c0,0,0.01,0,0.01,0
		c0,0,0.01,0,0.01,0c0.01,0,0.03,0.01,0.05,0.01c0.08,0.02,0.16,0.04,0.24,0.05c0.03,0,0.05,0.01,0.08,0.01
		c0.09,0.01,0.18,0.02,0.27,0.02c0.01,0,0.02,0,0.03,0c0.01,0,0.03,0,0.04,0c0.01,0,0.03,0,0.04,0c0.01,0,0.02,0,0.03,0
		c0.09,0,0.18-0.01,0.27-0.02c0.03,0,0.05-0.01,0.08-0.01c0.08-0.01,0.16-0.03,0.24-0.05c0.01,0,0.03-0.01,0.05-0.01
		c0,0,0.01,0,0.01,0c0,0,0.01,0,0.01,0c0.08-0.02,0.15-0.05,0.22-0.08c0.09-0.04,0.18-0.08,0.27-0.13c0.08-0.05,0.16-0.1,0.23-0.15
		c0,0,0,0,0,0c0,0,0,0,0,0c0.61-0.44,1-1.15,1-1.95c0-1.34-1.1-2.43-2.45-2.43c-1.35,0-2.45,1.09-2.45,2.43
		C2.57,11.49,2.96,12.2,3.57,12.65z M6.23,12.8C6.24,12.8,6.24,12.8,6.23,12.8c-0.15,0.09-0.32,0.16-0.49,0.22c0,0,0,0,0,0
		C5.92,12.96,6.08,12.88,6.23,12.8z"/>
	<path class="st0" d="M20.4,13.47c-0.05,0.03-0.11,0.07-0.17,0.1c-0.11,0.06-0.22,0.12-0.34,0.17C19.48,13.91,19.04,14,18.58,14
		c-0.46,0-0.9-0.09-1.32-0.26c-0.12-0.05-0.23-0.11-0.34-0.17c-0.06-0.03-0.11-0.06-0.17-0.1c-0.01,0-0.01,0.01-0.02,0.01
		c0.03,0.04,0.07,0.09,0.1,0.13c0.32,0.41,0.58,0.86,0.79,1.34c0.33,0.77,0.5,1.58,0.5,2.42v0.45v0.15H23v-0.51
		C23,15.68,21.93,14.16,20.4,13.47z"/>
	<path class="st0" d="M16.15,10.96c0.01,0.08,0.03,0.17,0.05,0.25c0,0.01,0.01,0.03,0.01,0.04c0.02,0.08,0.04,0.16,0.07,0.23
		c0,0.01,0.01,0.02,0.01,0.03c0.01,0.03,0.02,0.05,0.03,0.08c0.12,0.29,0.3,0.55,0.53,0.77c0.09,0.09,0.18,0.16,0.28,0.24
		c0.07,0.05,0.15,0.1,0.23,0.15c0.09,0.05,0.18,0.1,0.27,0.13c0.07,0.03,0.15,0.06,0.22,0.08c0,0,0.01,0,0.01,0c0,0,0.01,0,0.01,0
		c0.01,0,0.03,0.01,0.05,0.01c0.08,0.02,0.16,0.04,0.24,0.05c0.03,0,0.05,0.01,0.08,0.01c0.09,0.01,0.18,0.02,0.27,0.02
		c0.01,0,0.02,0,0.03,0c0.01,0,0.03,0,0.04,0s0.03,0,0.04,0c0.01,0,0.02,0,0.03,0c0.09,0,0.18-0.01,0.27-0.02
		c0.03,0,0.05-0.01,0.08-0.01c0.08-0.01,0.16-0.03,0.24-0.05c0.01,0,0.03-0.01,0.04-0.01c0,0,0.01,0,0.01,0c0,0,0.01,0,0.01,0
		c0.08-0.02,0.15-0.05,0.22-0.08c0.09-0.04,0.18-0.08,0.27-0.13c0.08-0.05,0.16-0.1,0.23-0.15c0.1-0.07,0.19-0.15,0.28-0.24
		c0.23-0.22,0.4-0.48,0.53-0.77c0.01-0.03,0.02-0.05,0.03-0.08c0-0.01,0.01-0.02,0.01-0.03c0.03-0.08,0.05-0.15,0.07-0.23
		c0-0.01,0.01-0.03,0.01-0.04c0.02-0.08,0.04-0.16,0.05-0.25c0-0.01,0-0.02,0-0.03c0.01-0.1,0.02-0.19,0.02-0.29
		c0-0.33-0.06-0.65-0.19-0.95c-0.12-0.29-0.3-0.55-0.53-0.77c-0.23-0.22-0.49-0.4-0.78-0.52c-0.3-0.13-0.62-0.19-0.96-0.19
		s-0.65,0.06-0.96,0.19c-0.29,0.12-0.55,0.3-0.78,0.52c-0.23,0.22-0.4,0.48-0.53,0.77c-0.13,0.3-0.19,0.62-0.19,0.95
		c0,0.1,0.01,0.19,0.02,0.29C16.15,10.95,16.15,10.96,16.15,10.96z M19.8,12.75C19.8,12.75,19.8,12.75,19.8,12.75
		c-0.15,0.09-0.32,0.16-0.49,0.22c0,0,0,0,0,0C19.48,12.92,19.65,12.84,19.8,12.75z M17.13,12.6c0.07,0.05,0.15,0.1,0.23,0.15
		c0,0,0,0,0,0C17.28,12.71,17.2,12.66,17.13,12.6C17.13,12.6,17.13,12.6,17.13,12.6z"/>
	<path class="st0" d="M16.01,13.9c-0.03-0.03-0.06-0.07-0.09-0.1c0,0,0,0,0,0c0,0,0,0,0,0c-0.07-0.08-0.14-0.15-0.21-0.23
		c-0.05-0.05-0.11-0.11-0.17-0.16c-0.42-0.39-0.91-0.71-1.45-0.95c-0.07,0.04-0.14,0.08-0.21,0.12c-0.14,0.08-0.27,0.15-0.42,0.21
		c-0.51,0.21-1.06,0.32-1.62,0.32c-0.56,0-1.11-0.11-1.62-0.32c-0.14-0.06-0.28-0.13-0.42-0.21c-0.07-0.04-0.14-0.08-0.21-0.12
		c-0.56,0.25-1.07,0.6-1.51,1.01c-0.06,0.05-0.11,0.11-0.16,0.16c-0.07,0.07-0.14,0.15-0.21,0.23c0,0,0,0,0,0c0,0,0,0,0,0
		c-0.03,0.03-0.06,0.07-0.09,0.1c-0.04,0.04-0.07,0.09-0.11,0.14c-0.7,0.91-1.11,2.04-1.11,3.26v0.49v0.14h3.03h0.04h0.01h0.01H9.8
		h0.33h3.35h0.33h0.31h0.01h0.01h3.16v-0.03v-0.15v-0.45c0-1.26-0.44-2.41-1.17-3.33C16.08,13.99,16.05,13.95,16.01,13.9z"/>
	<path class="st0" d="M10.06,11.39C10.06,11.4,10.06,11.4,10.06,11.39C10.06,11.4,10.05,11.4,10.06,11.39
		c0.09,0.07,0.18,0.13,0.28,0.19c0.11,0.06,0.22,0.12,0.33,0.17c0.09,0.04,0.18,0.07,0.27,0.1c0,0,0.01,0,0.01,0c0,0,0.01,0,0.01,0
		c0.26,0.08,0.54,0.12,0.82,0.13c0.02,0,0.04,0,0.07,0c0.02,0,0.04,0,0.07,0c0.28-0.01,0.56-0.05,0.82-0.13c0,0,0.01,0,0.01,0
		c0,0,0.01,0,0.01,0c0.09-0.03,0.18-0.06,0.27-0.1c0.11-0.05,0.22-0.1,0.33-0.17c0.1-0.06,0.19-0.12,0.28-0.18c0,0,0,0,0,0
		c0,0,0,0,0,0c0.75-0.54,1.24-1.42,1.24-2.41c0-1.65-1.35-2.99-3.02-2.99c-1.67,0-3.02,1.34-3.02,2.99
		C8.82,9.98,9.31,10.85,10.06,11.39z M11.84,6.56c1.35,0,2.45,1.09,2.45,2.43c0,0.99-0.61,1.85-1.47,2.22c0,0,0,0,0,0c0,0,0,0,0,0
		c0.87-0.37,1.47-1.23,1.47-2.22C14.3,7.65,13.2,6.56,11.84,6.56c-1.35,0-2.45,1.09-2.45,2.43c0,0.99,0.61,1.85,1.47,2.22
		c0,0,0,0,0,0c0,0,0,0,0,0C10,10.84,9.39,9.98,9.39,8.99C9.39,7.65,10.49,6.56,11.84,6.56z"/>
</g>
</svg>
