<?xml version="1.0" encoding="utf-8"?>
<!-- Generator: Adobe Illustrator 26.3.1, SVG Export Plug-In . SVG Version: 6.00 Build 0)  -->
<svg version="1.1" id="Layer_1" xmlns="http://www.w3.org/2000/svg" xmlns:xlink="http://www.w3.org/1999/xlink" x="0px" y="0px"
	 viewBox="0 0 24 24" style="enable-background:new 0 0 24 24;" xml:space="preserve">
<style type="text/css">
	.st0{fill:#2CC3EB;}
</style>
<g>
	<path class="st0" d="M20.54,11.58V8.8l0.24-0.32V6.32c0,0-2.65-4.96-2.91-5.25C17.61,0.79,15.03,0,15.03,0l-0.67,0.45h-2.34H9.69
		L9.02,0c0,0-2.58,0.79-2.84,1.07C5.92,1.36,3.27,6.32,3.27,6.32v2.16L3.51,8.8v2.78l-1.45,2.33l0.57,2.36l7.75,7.11h1.65h1.65
		l7.75-7.11l0.57-2.36L20.54,11.58z M18.75,13.37c-0.81,0.64-3.7,3.27-3.7,3.27h-3.03H9c0,0-2.89-2.62-3.7-3.27
		c-0.69-1.72-0.26-3.58-0.26-3.58l2.31,1.53h2.12l0.43-0.93h2.12h2.12l0.43,0.93h2.12l2.31-1.53C19.02,9.79,19.45,11.65,18.75,13.37
		z"/>
</g>
</svg>
