<?xml version="1.0" encoding="utf-8"?>
<!-- Generator: Adobe Illustrator 26.3.1, SVG Export Plug-In . SVG Version: 6.00 Build 0)  -->
<svg version="1.1" id="Layer_1" xmlns="http://www.w3.org/2000/svg" xmlns:xlink="http://www.w3.org/1999/xlink" x="0px" y="0px"
	 viewBox="0 0 24 24" style="enable-background:new 0 0 24 24;" xml:space="preserve">
<style type="text/css">
	.st0{fill:#2CC3EB;}
</style>
<g>
	<path class="st0" d="M13.05,19.94c0,0.78-0.63,1.41-1.41,1.41c-0.78,0-1.41-0.63-1.41-1.41c0-0.78,0.63-1.41,1.41-1.41
		C12.42,18.53,13.05,19.16,13.05,19.94L13.05,19.94z M12.29,12.44c-0.16-0.18-0.32-0.37-0.48-0.59c-0.06-0.09-0.12-0.17-0.18-0.26
		c-0.06,0.09-0.12,0.18-0.18,0.26c-0.17,0.23-0.35,0.44-0.52,0.63v4.84c-0.23,0.06-0.44,0.16-0.64,0.27
		c-0.8,0.47-1.34,1.34-1.34,2.34c0,1.5,1.22,2.71,2.71,2.71c1.5,0,2.71-1.22,2.71-2.71c0-1.03-0.58-1.93-1.43-2.39
		c-0.2-0.11-0.42-0.19-0.64-0.25V12.44L12.29,12.44z"/>
	<path class="st0" d="M1.6,13.65c0-0.78,0.63-1.41,1.41-1.41s1.41,0.63,1.41,1.41c0,0.78-0.63,1.41-1.41,1.41S1.6,14.43,1.6,13.65
		L1.6,13.65z M9.16,13.15c0.3-0.19,1.09-0.7,1.79-1.66c0.38-0.51,0.7-1.14,0.93-1.81c0.42-1.2,0.4-2.09,0.38-3.86
		c-0.01-0.59-0.01-1.25-0.01-2.07c0-0.08,0-0.16,0-0.24l0.67,0.67l1.41,1.41c0.13,0.13,0.29,0.19,0.46,0.19s0.33-0.06,0.46-0.19
		c0.25-0.25,0.25-0.67,0-0.92l-2.38-2.38L11.6,1l-1.28,1.28L7.94,4.66c-0.25,0.25-0.25,0.67,0,0.92c0.25,0.25,0.67,0.25,0.92,0
		l1.41-1.41l0.68-0.68c0,0.08,0,0.16,0,0.24c0,0.83,0,1.5,0.01,2.09c0.02,1.72,0.03,2.44-0.31,3.42c-0.19,0.55-0.45,1.06-0.75,1.47
		c-0.56,0.77-1.21,1.18-1.45,1.33c-0.96,0.62-2,0.84-2.82,0.9c-0.06-0.21-0.14-0.41-0.24-0.6c-0.46-0.84-1.36-1.42-2.38-1.42
		c-1.5,0-2.71,1.22-2.71,2.71s1.22,2.71,2.71,2.71c1.05,0,1.97-0.6,2.42-1.49c0.1-0.2,0.18-0.4,0.23-0.62
		C6.65,14.19,7.94,13.92,9.16,13.15L9.16,13.15z"/>
	<path class="st0" d="M20.24,15.08c-0.78,0-1.41-0.63-1.41-1.41c0-0.78,0.63-1.41,1.41-1.41s1.41,0.63,1.41,1.41
		C21.65,14.45,21.02,15.08,20.24,15.08L20.24,15.08z M20.24,10.96c-1.02,0-1.91,0.56-2.37,1.4c-0.1,0.19-0.19,0.39-0.24,0.6
		c-0.82-0.06-1.86-0.28-2.83-0.9c-0.24-0.15-0.88-0.57-1.45-1.33c-0.28-0.39-0.53-0.86-0.72-1.39c-0.05,0.18-0.1,0.36-0.17,0.55
		c-0.14,0.4-0.3,0.77-0.49,1.12c0.1,0.17,0.21,0.34,0.32,0.49c0.71,0.96,1.5,1.47,1.79,1.66c1.21,0.78,2.5,1.04,3.5,1.11
		c0.05,0.22,0.12,0.43,0.22,0.62c0.45,0.89,1.37,1.51,2.43,1.51c1.5,0,2.71-1.22,2.71-2.71C22.95,12.17,21.74,10.96,20.24,10.96
		L20.24,10.96z"/>
</g>
</svg>
